<?xml version="1.0" encoding="utf-8"?><!-- Uploaded to: SVG Repo, www.svgrepo.com, Generator: SVG Repo Mixer Tools -->
<svg width="800px" height="800px" viewBox="0 -0.5 25 25" fill="none" xmlns="http://www.w3.org/2000/svg">
<path fill-rule="evenodd" clip-rule="evenodd" d="M5.50063 16.1407C5.46273 18.2335 7.1278 19.9613 9.22063 20.0007H15.7806C17.8735 19.9613 19.5385 18.2335 19.5006 16.1407L19.0636 11.4527C18.9527 9.68529 17.716 8.19053 16.0006 7.75065C15.6432 7.64667 15.2729 7.59348 14.9006 7.59265H10.1006C9.72837 7.59348 9.35808 7.64667 9.00063 7.75065C7.28636 8.19067 6.05026 9.68433 5.93863 11.4507L5.50063 16.1407Z" stroke="#000000" stroke-width="1.5" stroke-linecap="round" stroke-linejoin="round"/>
<path d="M15.2506 9.38862C15.2506 9.80283 15.5864 10.1386 16.0006 10.1386C16.4148 10.1386 16.7506 9.80283 16.7506 9.38862H15.2506ZM16.0006 7.36762H16.7506C16.7506 7.36264 16.7506 7.35767 16.7505 7.35269L16.0006 7.36762ZM12.5006 4.00062L12.4865 4.75049C12.4959 4.75067 12.5053 4.75067 12.5147 4.75049L12.5006 4.00062ZM9.00061 7.36762L8.25076 7.35269C8.25066 7.35767 8.25061 7.36264 8.25061 7.36762H9.00061ZM8.25061 9.38762C8.25061 9.80184 8.5864 10.1376 9.00061 10.1376C9.41482 10.1376 9.75061 9.80184 9.75061 9.38762H8.25061ZM16.1963 15.3248C16.3511 14.9406 16.165 14.5037 15.7808 14.3489C15.3966 14.1942 14.9597 14.3802 14.8049 14.7644L16.1963 15.3248ZM14.6166 16.2506L15.0904 16.8321L15.0932 16.8297L14.6166 16.2506ZM10.3646 16.2196L9.87906 16.7913L9.88243 16.7941L10.3646 16.2196ZM10.2008 14.7318C10.0523 14.3451 9.61852 14.152 9.23182 14.3004C8.84512 14.4489 8.65198 14.8827 8.80043 15.2694L10.2008 14.7318ZM10.2506 12.0006C10.2506 11.5864 9.91482 11.2506 9.50061 11.2506C9.0864 11.2506 8.75061 11.5864 8.75061 12.0006H10.2506ZM8.75061 13.0006C8.75061 13.4148 9.0864 13.7506 9.50061 13.7506C9.91482 13.7506 10.2506 13.4148 10.2506 13.0006H8.75061ZM16.2506 12.0006C16.2506 11.5864 15.9148 11.2506 15.5006 11.2506C15.0864 11.2506 14.7506 11.5864 14.7506 12.0006H16.2506ZM14.7506 13.0006C14.7506 13.4148 15.0864 13.7506 15.5006 13.7506C15.9148 13.7506 16.2506 13.4148 16.2506 13.0006H14.7506ZM16.7506 9.38862V7.36762H15.2506V9.38862H16.7506ZM16.7505 7.35269C16.7045 5.04305 14.7962 3.20727 12.4865 3.25075L12.5147 4.75049C13.9968 4.72258 15.2213 5.90054 15.2508 7.38255L16.7505 7.35269ZM12.5147 3.25075C10.205 3.20727 8.29674 5.04305 8.25076 7.35269L9.75046 7.38255C9.77997 5.90054 11.0045 4.72258 12.4865 4.75049L12.5147 3.25075ZM8.25061 7.36762V9.38762H9.75061V7.36762H8.25061ZM14.8049 14.7644C14.6627 15.1177 14.434 15.4295 14.14 15.6715L15.0932 16.8297C15.581 16.4283 15.9603 15.9108 16.1963 15.3248L14.8049 14.7644ZM14.1429 15.6692C13.1807 16.4531 11.7974 16.4431 10.8468 15.6452L9.88243 16.7941C11.3844 18.0548 13.5702 18.0707 15.0904 16.832L14.1429 15.6692ZM10.8501 15.648C10.5604 15.4018 10.3371 15.0868 10.2008 14.7318L8.80043 15.2694C9.02679 15.8591 9.39769 16.3824 9.87907 16.7912L10.8501 15.648ZM8.75061 12.0006V13.0006H10.2506V12.0006H8.75061ZM14.7506 12.0006V13.0006H16.2506V12.0006H14.7506Z" fill="#000000"/>
</svg>