<?xml version="1.0" encoding="UTF-8" standalone="no" ?>
<!DOCTYPE svg PUBLIC "-//W3C//DTD SVG 1.1//EN" "http://www.w3.org/Graphics/SVG/1.1/DTD/svg11.dtd">
<svg xmlns="http://www.w3.org/2000/svg" xmlns:xlink="http://www.w3.org/1999/xlink" version="1.1" width="200" height="200" viewBox="0 0 200 200" xml:space="preserve">
<desc>Created with Fabric.js 5.3.0</desc>
<defs>
</defs>
<g transform="matrix(1 0 0 1 65.4320987654 84.5679012346)" id="1HyEQVOLbpP_0ILQ8xQzn"  >
<path style="stroke: rgb(0,0,0); stroke-width: 1; stroke-dasharray: none; stroke-linecap: butt; stroke-dashoffset: 0; stroke-linejoin: miter; stroke-miterlimit: 4; fill: rgb(255,255,255); fill-opacity: 0; fill-rule: nonzero; opacity: 1;"  transform=" translate(0, 0)" d="M 0 0" stroke-linecap="round" />
</g>
<g transform="matrix(1 0 0 1 84.7222222222 99.0740740741)" id="VsQFIHpVeLkJBLRTrpsCj"  >
<path style="stroke: rgb(0,0,0); stroke-width: 1; stroke-dasharray: none; stroke-linecap: butt; stroke-dashoffset: 0; stroke-linejoin: miter; stroke-miterlimit: 4; fill: rgb(255,255,255); fill-opacity: 0; fill-rule: nonzero; opacity: 1;"  transform=" translate(0, 0)" d="M -19.79012 -10.80247 L -36.26543 -56.48148 L -6.327160000000003 -15.006169999999997 L -16.512350000000005 -78.08642 L 3.5493799999999958 -14.006169999999997 L 19.598759999999995 -56.48148 L 7.561719999999996 -6.172840000000001 L 43.05555 -17.59259 L 19.598759999999995 2.4691399999999994 L 74.53703 40.74074 L 13.425920000000005 11.728390000000001 L 31.327150000000007 78.08641 L 3.549370000000007 17.901220000000002 L 3.549370000000007 74.69134 L -6.3271699999999935 29.62961 L -64.35185999999999 74.69134 L -12.808649999999986 25.617269999999998 L -70.5247 36.72838 L -14.043219999999998 20.98764 L -74.53705 4.93826 L -36.265449999999994 2.4691199999999998 L -60.95680999999999 -47.222240000000006 L -24.845699999999994 2.4691199999999967 L -60.95680999999999 -78.08644000000001 z" stroke-linecap="round" />
</g>
<g transform="matrix(1 0 0 1 66.3580246914 102.9315987654)" id="BP7sa_1K5-6JDddfAlZLp"  >
<path style="stroke: rgb(0,0,0); stroke-width: 1; stroke-dasharray: none; stroke-linecap: round; stroke-dashoffset: 0; stroke-linejoin: round; stroke-miterlimit: 10; fill: none; fill-rule: nonzero; opacity: 1;"  transform=" translate(-66.3580246914, -102.9315987654)" d="M 66.35902469135803 101.5422098765432 Q 66.35802469135803 101.5432098765432 66.2037037037037 101.5432098765432 Q 66.04938271604937 101.5432098765432 65.89506172839505 101.85185185185185 Q 65.74074074074073 102.1604938271605 65.74074074074073 102.31481481481481 Q 65.74074074074073 102.46913580246914 65.74074074074073 102.77777777777777 Q 65.74074074074073 103.08641975308642 65.74074074074073 103.24074074074073 Q 65.74074074074073 103.39506172839506 65.74074074074073 103.54938271604938 Q 65.74074074074073 103.7037037037037 65.74074074074073 103.85802469135803 Q 65.74074074074073 104.01234567901234 65.89506172839505 104.16666666666666 Q 66.04938271604937 104.32098765432099 66.2037037037037 104.32098765432099 Q 66.35802469135803 104.32098765432099 66.51234567901234 104.32098765432099 Q 66.66666666666666 104.32098765432099 66.82098765432097 104.16666666666666 Q 66.97530864197529 104.01234567901234 66.97530864197529 103.85802469135803 Q 66.97530864197529 103.7037037037037 66.97530864197529 103.54938271604938 Q 66.97530864197529 103.39506172839506 66.97530864197529 103.24074074074073 Q 66.97530864197529 103.08641975308642 66.97530864197529 102.9320987654321 Q 66.97530864197529 102.77777777777777 66.97530864197529 102.62345679012346 Q 66.97530864197529 102.46913580246914 66.97530864197529 102.31481481481481 Q 66.97530864197529 102.1604938271605 66.82098765432097 102.1604938271605 Q 66.66666666666666 102.1604938271605 66.51234567901234 102.1604938271605 Q 66.35802469135803 102.1604938271605 66.2037037037037 102.1604938271605 Q 66.04938271604937 102.1604938271605 66.04938271604937 102.31481481481481 Q 66.04938271604937 102.46913580246914 66.04938271604937 102.62345679012346 Q 66.04938271604937 102.77777777777777 66.04938271604937 102.9320987654321 Q 66.04938271604937 103.08641975308642 66.04938271604937 103.24074074074073 Q 66.04938271604937 103.39506172839506 66.2037037037037 103.39506172839506 Q 66.35802469135803 103.39506172839506 66.51234567901234 103.39506172839506 Q 66.66666666666666 103.39506172839506 66.82098765432097 103.39506172839506 Q 66.97530864197529 103.39506172839506 66.97530864197529 103.24074074074073 Q 66.97530864197529 103.08641975308642 66.97530864197529 102.9320987654321 Q 66.97530864197529 102.77777777777777 66.97530864197529 102.62345679012346 Q 66.97530864197529 102.46913580246914 66.97530864197529 102.31481481481481 Q 66.97530864197529 102.1604938271605 66.97530864197529 102.00617283950618 Q 66.97530864197529 101.85185185185185 66.82098765432097 101.85185185185185 Q 66.66666666666666 101.85185185185185 66.51234567901234 101.85185185185185 Q 66.35802469135803 101.85185185185185 66.2037037037037 101.85185185185185 Q 66.04938271604937 101.85185185185185 66.04938271604937 102.00617283950618 Q 66.04938271604937 102.1604938271605 65.89506172839505 102.1604938271605 Q 65.74074074074073 102.1604938271605 65.74074074074073 102.31481481481481 Q 65.74074074074073 102.46913580246914 65.74074074074073 102.77777777777777 L 65.74074074074073 103.08741975308642" stroke-linecap="round" />
</g>
<g transform="matrix(1 0 0 1 84.7222222222 93.8271604938)" id="kjzTHE3yQ_JbesZ4e0yhj"  >
<path style="stroke: rgb(0,0,0); stroke-width: 1; stroke-dasharray: none; stroke-linecap: round; stroke-dashoffset: 0; stroke-linejoin: round; stroke-miterlimit: 10; fill: none; fill-rule: nonzero; opacity: 1;"  transform=" translate(-84.7222222222, -93.8271604938)" d="M 84.5669012345679 94.75308641975309 Q 84.5679012345679 94.75308641975309 84.5679012345679 94.9074074074074 Q 84.5679012345679 95.06172839506172 84.72222222222221 95.06172839506172 Q 84.87654320987653 95.06172839506172 85.03086419753085 95.06172839506172 Q 85.18518518518516 95.06172839506172 85.33950617283949 95.06172839506172 Q 85.49382716049382 95.06172839506172 85.49382716049382 94.9074074074074 Q 85.49382716049382 94.75308641975309 85.64814814814814 94.59876543209876 Q 85.80246913580245 94.44444444444444 85.80246913580245 94.29012345679013 Q 85.80246913580245 94.1358024691358 85.80246913580245 93.98148148148148 Q 85.80246913580245 93.82716049382717 85.80246913580245 93.67283950617283 Q 85.80246913580245 93.51851851851852 85.80246913580245 93.20987654320987 Q 85.80246913580245 92.90123456790123 85.64814814814814 92.74691358024691 Q 85.49382716049382 92.5925925925926 85.18518518518518 92.5925925925926 Q 84.87654320987653 92.5925925925926 84.72222222222221 92.5925925925926 Q 84.5679012345679 92.5925925925926 84.25925925925925 92.5925925925926 Q 83.9506172839506 92.5925925925926 83.79629629629629 92.74691358024691 Q 83.64197530864197 92.90123456790123 83.64197530864197 93.20987654320987 Q 83.64197530864197 93.51851851851852 83.64197530864197 93.67283950617283 Q 83.64197530864197 93.82716049382717 83.64197530864197 94.1358024691358 Q 83.64197530864197 94.44444444444444 83.79629629629629 94.59876543209876 Q 83.9506172839506 94.75308641975309 84.10493827160492 94.75308641975309 Q 84.25925925925924 94.75308641975309 84.41358024691357 94.75308641975309 Q 84.5679012345679 94.75308641975309 84.72222222222221 94.75308641975309 Q 84.87654320987653 94.75308641975309 84.87654320987653 94.59876543209876 Q 84.87654320987653 94.44444444444444 85.03086419753085 94.44444444444444 Q 85.18518518518516 94.44444444444444 85.18518518518516 94.29012345679013 Q 85.18518518518516 94.1358024691358 85.03086419753085 93.98148148148148 L 84.87554320987653 93.82616049382716" stroke-linecap="round" />
</g>
<g transform="matrix(1 0 0 1 85.1851851852 92.7474135802)" id="Xt3HnJCh0I3XsFgGFZrPE"  >
<path style="stroke: rgb(0,0,0); stroke-width: 1; stroke-dasharray: none; stroke-linecap: round; stroke-dashoffset: 0; stroke-linejoin: round; stroke-miterlimit: 10; fill: none; fill-rule: nonzero; opacity: 1;"  transform=" translate(-85.1851851852, -92.7474135802)" d="M 85.18518518518516 93.21087654320988 Q 85.18518518518516 93.20987654320987 85.03086419753085 93.20987654320987 Q 84.87654320987653 93.20987654320987 84.87654320987653 93.05555555555554 Q 84.87654320987653 92.90123456790123 84.87654320987653 92.74691358024691 Q 84.87654320987653 92.5925925925926 85.03086419753085 92.43827160493828 Q 85.18518518518516 92.28395061728395 85.33950617283949 92.28395061728395 Q 85.49382716049382 92.28395061728395 85.49382716049382 92.59259259259258 L 85.49382716049382 92.90223456790123" stroke-linecap="round" />
</g>
<g transform="matrix(1 0 0 1 69.7530864198 172.2222222222)" id="tycQ-Aa3QldhUA8HqjI31"  >
<path style="stroke: rgb(0,0,0); stroke-width: 1; stroke-dasharray: none; stroke-linecap: round; stroke-dashoffset: 0; stroke-linejoin: round; stroke-miterlimit: 10; fill: none; fill-rule: nonzero; opacity: 1;"  transform=" translate(-69.7530864198, -172.2222222222)" d="M 69.75208641975308 172.22222222222223 L 69.7540864197531 172.22222222222223" stroke-linecap="round" />
</g>
<g transform="matrix(1 0 0 1 78.2407407407 101.8518518519)" id="BrgVxpqPIoeuwuMxZ467M"  >
<path style="stroke: rgb(0,0,0); stroke-width: 1; stroke-dasharray: none; stroke-linecap: round; stroke-dashoffset: 0; stroke-linejoin: round; stroke-miterlimit: 10; fill: none; fill-rule: nonzero; opacity: 1;"  transform=" translate(-78.2407407407, -101.8518518519)" d="M 78.39506172839506 102.77877777777778 Q 78.39506172839506 102.77777777777777 78.54938271604938 102.77777777777777 Q 78.7037037037037 102.77777777777777 78.7037037037037 102.62345679012346 Q 78.7037037037037 102.46913580246914 78.85802469135801 102.31481481481481 Q 79.01234567901233 102.1604938271605 79.01234567901233 102.00617283950618 Q 79.01234567901233 101.85185185185185 79.01234567901233 101.69753086419752 Q 79.01234567901233 101.5432098765432 79.01234567901233 101.38888888888889 Q 79.01234567901233 101.23456790123457 79.01234567901233 100.92592592592592 Q 79.01234567901233 100.61728395061728 78.7037037037037 100.61728395061728 Q 78.39506172839506 100.61728395061728 78.24074074074073 100.61728395061728 Q 78.0864197530864 100.61728395061728 77.93209876543209 100.7716049382716 Q 77.77777777777777 100.92592592592592 77.62345679012346 101.08024691358025 Q 77.46913580246914 101.23456790123457 77.46913580246914 101.38888888888889 Q 77.46913580246914 101.5432098765432 77.46913580246914 101.69753086419752 Q 77.46913580246914 101.85185185185185 77.46913580246914 102.00617283950618 Q 77.46913580246914 102.1604938271605 77.46913580246914 102.31481481481481 Q 77.46913580246914 102.46913580246914 77.46913580246914 102.62345679012346 Q 77.46913580246914 102.77777777777777 77.62345679012346 102.9320987654321 Q 77.77777777777777 103.08641975308642 77.93209876543209 103.08641975308642 Q 78.0864197530864 103.08641975308642 78.0864197530864 102.9320987654321 Q 78.0864197530864 102.77777777777777 78.0864197530864 102.62345679012346 Q 78.0864197530864 102.46913580246914 78.0864197530864 102.31481481481481 Q 78.0864197530864 102.1604938271605 78.0864197530864 102.00617283950618 Q 78.0864197530864 101.85185185185185 78.0864197530864 102.00617283950618 Q 78.0864197530864 102.1604938271605 78.0864197530864 102.31481481481481 Q 78.0864197530864 102.46913580246914 78.24074074074073 102.46913580246914 Q 78.39506172839506 102.46913580246914 78.54938271604938 102.46913580246914 Q 78.7037037037037 102.46913580246914 78.7037037037037 102.31481481481481 Q 78.7037037037037 102.1604938271605 78.7037037037037 102.00617283950618 Q 78.7037037037037 101.85185185185185 78.54938271604938 101.85185185185185 Q 78.39506172839506 101.85185185185185 78.24074074074073 101.85185185185185 Q 78.0864197530864 101.85185185185185 78.0864197530864 102.1604938271605 L 78.0864197530864 102.47013580246914" stroke-linecap="round" />
</g>
<g transform="matrix(1 0 0 1 73.7654320988 107.7155493827)" id="3nUsxlfmJ_fh4INbhlefE"  >
<path style="stroke: rgb(0,0,0); stroke-width: 1; stroke-dasharray: none; stroke-linecap: round; stroke-dashoffset: 0; stroke-linejoin: round; stroke-miterlimit: 10; fill: none; fill-rule: nonzero; opacity: 1;"  transform=" translate(-73.7654320988, -107.7155493827)" d="M 78.0864197530864 102.46813580246913 Q 78.0864197530864 102.46913580246914 78.0864197530864 102.62345679012346 Q 78.0864197530864 102.77777777777777 78.0864197530864 103.08641975308642 Q 78.0864197530864 103.39506172839506 78.24074074074073 103.54938271604938 Q 78.39506172839506 103.7037037037037 78.39506172839506 103.85802469135803 Q 78.39506172839506 104.01234567901234 78.54938271604938 104.01234567901234 Q 78.7037037037037 104.01234567901234 78.7037037037037 104.16666666666666 Q 78.7037037037037 104.32098765432099 78.7037037037037 104.62962962962962 Q 78.7037037037037 104.93827160493827 78.85802469135801 105.40123456790123 Q 79.01234567901233 105.86419753086419 79.01234567901233 106.17283950617283 Q 79.01234567901233 106.48148148148148 79.16666666666666 106.79012345679013 Q 79.32098765432099 107.09876543209876 79.32098765432099 107.25308641975309 Q 79.32098765432099 107.4074074074074 79.32098765432099 107.56172839506172 Q 79.32098765432099 107.71604938271605 79.32098765432099 107.87037037037037 Q 79.32098765432099 108.02469135802468 79.32098765432099 108.17901234567901 Q 79.32098765432099 108.33333333333333 79.32098765432099 108.48765432098764 Q 79.32098765432099 108.64197530864197 79.32098765432099 108.7962962962963 Q 79.32098765432099 108.95061728395062 79.32098765432099 109.10493827160494 Q 79.32098765432099 109.25925925925925 79.32098765432099 109.41358024691357 Q 79.32098765432099 109.5679012345679 79.32098765432099 109.72222222222223 Q 79.32098765432099 109.87654320987654 79.16666666666666 110.03086419753086 Q 79.01234567901233 110.18518518518518 79.01234567901233 110.33950617283949 Q 79.01234567901233 110.49382716049382 78.85802469135801 110.49382716049382 Q 78.7037037037037 110.49382716049382 78.54938271604938 110.64814814814815 Q 78.39506172839506 110.80246913580247 78.24074074074073 110.80246913580247 Q 78.0864197530864 110.80246913580247 77.93209876543209 110.95679012345678 Q 77.77777777777777 111.11111111111111 77.62345679012346 111.26543209876543 Q 77.46913580246914 111.41975308641975 77.31481481481481 111.41975308641975 Q 77.16049382716048 111.41975308641975 77.00617283950616 111.57407407407408 Q 76.85185185185185 111.72839506172839 76.69753086419752 111.72839506172839 Q 76.54320987654319 111.72839506172839 76.38888888888887 111.88271604938271 Q 76.23456790123456 112.03703703703704 76.08024691358024 112.03703703703704 Q 75.92592592592592 112.03703703703704 75.7716049382716 112.03703703703704 Q 75.61728395061726 112.03703703703704 75.46296296296295 112.03703703703704 Q 75.30864197530863 112.03703703703704 75.15432098765432 112.19135802469135 Q 75 112.34567901234567 74.69135802469135 112.34567901234567 Q 74.38271604938271 112.34567901234567 74.07407407407406 112.34567901234567 Q 73.76543209876542 112.34567901234567 73.45679012345678 112.5 Q 73.14814814814815 112.65432098765432 72.68518518518518 112.65432098765432 Q 72.2222222222222 112.65432098765432 71.91358024691357 112.65432098765432 Q 71.60493827160494 112.65432098765432 71.14197530864197 112.65432098765432 Q 70.67901234567901 112.65432098765432 70.52469135802468 112.80864197530863 Q 70.37037037037035 112.96296296296296 70.21604938271604 112.96296296296296 Q 70.06172839506172 112.96296296296296 69.9074074074074 112.96296296296296 Q 69.75308641975309 112.96296296296296 69.59876543209876 112.96296296296296 Q 69.44444444444443 112.96296296296296 69.29012345679011 112.96296296296296 Q 69.1358024691358 112.96296296296296 69.1358024691358 112.80864197530863 Q 69.1358024691358 112.65432098765432 68.98148148148148 112.34567901234567 Q 68.82716049382717 112.03703703703704 68.82716049382717 111.88271604938271 Q 68.82716049382717 111.72839506172839 68.67283950617283 111.72839506172839 Q 68.5185185185185 111.72839506172839 68.5185185185185 111.41975308641975 Q 68.5185185185185 111.11111111111111 68.5185185185185 110.95679012345678 Q 68.5185185185185 110.80246913580247 68.36419753086419 110.64814814814815 Q 68.20987654320987 110.49382716049382 68.20987654320987 110.18518518518519 L 68.20987654320987 109.87554320987654" stroke-linecap="round" />
</g>
<g transform="matrix(1 0 0 1 84.7222222222 104.7834506173)" id="U9Nr1EQOMgX2c9-fm5A8o"  >
<path style="stroke: rgb(0,0,0); stroke-width: 1; stroke-dasharray: none; stroke-linecap: round; stroke-dashoffset: 0; stroke-linejoin: round; stroke-miterlimit: 10; fill: none; fill-rule: nonzero; opacity: 1;"  transform=" translate(-84.7222222222, -104.7834506173)" d="M 79.01234567901233 102.15949382716049 Q 79.01234567901233 102.1604938271605 79.01234567901233 102.31481481481481 Q 79.01234567901233 102.46913580246914 79.01234567901233 102.62345679012346 Q 79.01234567901233 102.77777777777777 79.01234567901233 103.08641975308642 Q 79.01234567901233 103.39506172839506 79.01234567901233 103.54938271604938 Q 79.01234567901233 103.7037037037037 79.01234567901233 104.01234567901234 Q 79.01234567901233 104.32098765432099 79.16666666666666 104.62962962962962 Q 79.32098765432099 104.93827160493827 79.4753086419753 105.24691358024691 Q 79.62962962962962 105.55555555555556 79.62962962962962 105.70987654320987 Q 79.62962962962962 105.86419753086419 79.78395061728394 106.17283950617283 Q 79.93827160493825 106.48148148148148 80.09259259259258 106.6358024691358 Q 80.24691358024691 106.79012345679013 80.24691358024691 106.94444444444444 Q 80.24691358024691 107.09876543209876 80.24691358024691 107.25308641975309 Q 80.24691358024691 107.4074074074074 80.40123456790123 107.4074074074074 Q 80.55555555555554 107.4074074074074 80.70987654320986 107.56172839506172 Q 80.86419753086417 107.71604938271605 80.86419753086417 107.87037037037037 Q 80.86419753086417 108.02469135802468 81.0185185185185 108.17901234567901 Q 81.17283950617283 108.33333333333333 81.32716049382715 108.48765432098764 Q 81.48148148148147 108.64197530864197 81.6358024691358 108.64197530864197 Q 81.79012345679013 108.64197530864197 81.79012345679013 108.7962962962963 Q 81.79012345679013 108.95061728395062 81.94444444444444 108.95061728395062 Q 82.09876543209876 108.95061728395062 82.25308641975307 109.10493827160494 Q 82.40740740740739 109.25925925925925 82.71604938271604 109.25925925925925 Q 83.02469135802468 109.25925925925925 83.179012345679 109.25925925925925 Q 83.33333333333331 109.25925925925925 83.48765432098764 109.25925925925925 Q 83.64197530864197 109.25925925925925 83.79629629629629 109.25925925925925 Q 83.9506172839506 109.25925925925925 84.10493827160492 109.25925925925925 Q 84.25925925925924 109.25925925925925 84.41358024691357 109.25925925925925 Q 84.5679012345679 109.25925925925925 84.72222222222221 109.25925925925925 Q 84.87654320987653 109.25925925925925 85.03086419753085 109.25925925925925 Q 85.18518518518516 109.25925925925925 85.33950617283949 109.25925925925925 Q 85.49382716049382 109.25925925925925 85.64814814814814 109.25925925925925 Q 85.80246913580245 109.25925925925925 85.95679012345678 109.10493827160494 Q 86.11111111111111 108.95061728395062 86.26543209876543 108.95061728395062 Q 86.41975308641975 108.95061728395062 86.57407407407406 108.7962962962963 Q 86.72839506172838 108.64197530864197 87.03703703703702 108.48765432098764 Q 87.34567901234567 108.33333333333333 87.49999999999999 108.17901234567901 Q 87.6543209876543 108.02469135802468 87.6543209876543 107.87037037037037 Q 87.6543209876543 107.71604938271605 87.80864197530863 107.56172839506172 Q 87.96296296296296 107.4074074074074 88.11728395061728 107.25308641975309 Q 88.2716049382716 107.09876543209876 88.42592592592591 106.79012345679013 Q 88.58024691358023 106.48148148148148 88.73456790123456 106.32716049382717 Q 88.88888888888889 106.17283950617283 89.0432098765432 105.8641975308642 Q 89.19753086419752 105.55555555555556 89.19753086419752 105.24691358024691 Q 89.19753086419752 104.93827160493827 89.50617283950616 104.62962962962962 Q 89.81481481481481 104.32098765432099 89.81481481481481 104.01234567901234 Q 89.81481481481481 103.7037037037037 89.96913580246913 103.54938271604938 Q 90.12345679012344 103.39506172839506 90.12345679012344 103.08641975308642 Q 90.12345679012344 102.77777777777777 90.27777777777777 102.62345679012346 Q 90.4320987654321 102.46913580246914 90.4320987654321 102.31481481481481 Q 90.4320987654321 102.1604938271605 90.4320987654321 102.00617283950618 Q 90.4320987654321 101.85185185185185 90.4320987654321 101.69753086419752 Q 90.4320987654321 101.5432098765432 90.4320987654321 101.38888888888889 Q 90.4320987654321 101.23456790123457 90.4320987654321 101.08024691358025 Q 90.4320987654321 100.92592592592592 90.4320987654321 100.61728395061729 L 90.4320987654321 100.30764197530864" stroke-linecap="round" />
</g>
<g transform="matrix(1 0 0 1 84.5679012346 93.3641975309)" id="JFC-DTOy48ZiV8NMuxChL"  >
<path style="stroke: rgb(0,0,0); stroke-width: 1; stroke-dasharray: none; stroke-linecap: round; stroke-dashoffset: 0; stroke-linejoin: round; stroke-miterlimit: 10; fill: none; fill-rule: nonzero; opacity: 1;"  transform=" translate(-84.5679012346, -93.3641975309)" d="M 85.18618518518518 94.1358024691358 Q 85.18518518518518 94.1358024691358 85.18518518518518 93.98148148148148 Q 85.18518518518518 93.82716049382717 85.03086419753086 93.82716049382717 Q 84.87654320987654 93.82716049382717 84.87654320987654 93.67283950617283 Q 84.87654320987654 93.51851851851852 84.87654320987654 93.3641975308642 Q 84.87654320987654 93.20987654320987 84.72222222222223 93.20987654320987 Q 84.5679012345679 93.20987654320987 84.41358024691357 93.20987654320987 Q 84.25925925925925 93.20987654320987 84.25925925925925 93.3641975308642 Q 84.25925925925925 93.51851851851852 84.25925925925925 93.67283950617283 Q 84.25925925925925 93.82716049382717 84.41358024691357 93.98148148148148 Q 84.5679012345679 94.1358024691358 84.72222222222223 94.1358024691358 Q 84.87654320987654 94.1358024691358 85.03086419753086 94.1358024691358 Q 85.18518518518518 94.1358024691358 85.18518518518518 93.98148148148148 Q 85.18518518518518 93.82716049382717 85.18518518518518 93.51851851851852 Q 85.18518518518518 93.20987654320987 85.18518518518518 93.05555555555554 Q 85.18518518518518 92.90123456790123 85.18518518518518 92.74691358024691 Q 85.18518518518518 92.5925925925926 85.03086419753086 92.5925925925926 Q 84.87654320987654 92.5925925925926 84.72222222222223 92.5925925925926 Q 84.5679012345679 92.5925925925926 84.41358024691357 92.5925925925926 Q 84.25925925925925 92.5925925925926 84.10493827160494 92.74691358024691 L 83.94961728395062 92.90223456790123" stroke-linecap="round" />
</g>
<g transform="matrix(1 0 0 1 66.975308642 103.4148518519)" id="tk9sPO-6xdmAQXCmYC5vJ"  >
<path style="stroke: rgb(0,0,0); stroke-width: 1; stroke-dasharray: none; stroke-linecap: round; stroke-dashoffset: 0; stroke-linejoin: round; stroke-miterlimit: 10; fill: none; fill-rule: nonzero; opacity: 1;"  transform=" translate(-66.975308642, -103.4148518519)" d="M 66.9753086419753 103.08541975308641 Q 66.9753086419753 103.08641975308642 66.9753086419753 102.9320987654321 Q 66.9753086419753 102.77777777777777 66.9753086419753 102.9320987654321 Q 66.9753086419753 103.08641975308642 66.9753086419753 103.24074074074073 Q 66.9753086419753 103.39506172839506 66.9753086419753 103.7037037037037 L 66.9753086419753 104.01334567901235" stroke-linecap="round" />
</g>
</svg>